<svg width="89" height="30" viewBox="0 0 89 30" fill="none" xmlns="http://www.w3.org/2000/svg">
<path d="M8.77513 3.77513C8.19224 4.35801 7.95688 5.0819 7.85045 5.87357C7.74992 6.62126 7.74996 7.56141 7.75 8.68139L7.75 8.75V21.25L7.75 21.3186C7.74996 22.4386 7.74992 23.3787 7.85045 24.1264C7.95688 24.9181 8.19224 25.642 8.77513 26.2249C9.35801 26.8078 10.0819 27.0431 10.8736 27.1496C11.6213 27.2501 12.5614 27.25 13.6814 27.25H13.75H16.25H16.3186C17.4386 27.25 18.3787 27.2501 19.1264 27.1496C19.9181 27.0431 20.642 26.8078 21.2249 26.2249C21.8078 25.642 22.0431 24.9181 22.1496 24.1264C22.2501 23.3787 22.25 22.4386 22.25 21.3186L22.25 21.25V8.75L22.25 8.68139C22.25 7.56141 22.2501 6.62126 22.1496 5.87357C22.0431 5.0819 21.8078 4.35801 21.2249 3.77513C20.642 3.19224 19.9181 2.95688 19.1264 2.85045C18.3787 2.74992 17.4386 2.74996 16.3186 2.75L16.25 2.75H13.75L13.6814 2.75C12.5614 2.74996 11.6213 2.74992 10.8736 2.85045C10.0819 2.95688 9.35801 3.19224 8.77513 3.77513Z" stroke="#226F54" stroke-width="2"/>
<path d="M8.75 20H21.25" stroke="#226F54" stroke-width="2"/>
<path d="M32.9805 19.5H31.2168V9.63574H37.5059V11.1602H32.9805V14.0312H37.1162V15.501H32.9805V19.5ZM38.9436 19.5V9.12988H40.6389V19.5H38.9436ZM45.5151 13.2178C44.5033 13.2178 43.7924 13.9424 43.7172 15.0361H47.2377C47.2035 13.9287 46.5336 13.2178 45.5151 13.2178ZM47.2514 17.4424H48.8578C48.5365 18.8027 47.2992 19.6504 45.5356 19.6504C43.3344 19.6504 42.0082 18.1943 42.0082 15.7881C42.0082 13.3818 43.3549 11.8711 45.5219 11.8711C47.6547 11.8711 48.933 13.2861 48.933 15.6445V16.1914H43.7104V16.2803C43.7514 17.5244 44.4692 18.3037 45.5834 18.3037C46.4242 18.3037 47.0053 17.9961 47.2514 17.4424ZM52.8385 16.9229H52.7223L51.191 19.5H49.3658L51.7858 15.7881L49.3453 12.0215H51.3073L52.7975 14.5918H52.9137L54.3903 12.0215H56.2565L53.8434 15.7197L56.2838 19.5H54.3698L52.8385 16.9229ZM57.0037 14.1611C57.0037 12.8076 58.2342 11.8711 59.9979 11.8711C61.7752 11.8711 62.8895 12.6572 63.0125 14.0176H61.4198C61.2967 13.4912 60.7977 13.1562 60.0047 13.1562C59.2323 13.1562 58.6512 13.5254 58.6512 14.0654C58.6512 14.4893 59.0067 14.749 59.7586 14.9199L61.078 15.2207C62.5067 15.542 63.1698 16.1572 63.1698 17.2578C63.1698 18.6934 61.8504 19.6504 59.9842 19.6504C58.118 19.6504 56.9422 18.8438 56.8123 17.4834H58.4871C58.6512 18.0371 59.1776 18.3652 60.0252 18.3652C60.8797 18.3652 61.4744 17.9893 61.4744 17.4355C61.4744 17.0117 61.1532 16.7451 60.4422 16.5879L59.116 16.2803C57.6805 15.9521 57.0037 15.2891 57.0037 14.1611ZM64.5459 19.5V9.12988H66.2139V13.2314H66.337C66.6924 12.3906 67.4922 11.8848 68.6065 11.8848C70.2061 11.8848 71.1768 12.8965 71.1768 14.6738V19.5H69.4815V15.0771C69.4815 13.9424 68.962 13.3613 67.9776 13.3613C66.8633 13.3613 66.2412 14.0859 66.2412 15.1592V19.5H64.5459ZM72.7991 19.5V12.0215H74.4875V19.5H72.7991ZM73.6399 10.8047C73.0247 10.8047 72.594 10.4082 72.594 9.86816C72.594 9.32812 73.0247 8.93164 73.6399 8.93164C74.262 8.93164 74.6858 9.32812 74.6858 9.86816C74.6858 10.4082 74.262 10.8047 73.6399 10.8047ZM79.3227 13.2178C78.311 13.2178 77.6001 13.9424 77.5249 15.0361H81.0454C81.0112 13.9287 80.3413 13.2178 79.3227 13.2178ZM81.059 17.4424H82.6655C82.3442 18.8027 81.1069 19.6504 79.3432 19.6504C77.142 19.6504 75.8159 18.1943 75.8159 15.7881C75.8159 13.3818 77.1626 11.8711 79.3295 11.8711C81.4624 11.8711 82.7407 13.2861 82.7407 15.6445V16.1914H77.518V16.2803C77.559 17.5244 78.2768 18.3037 79.3911 18.3037C80.2319 18.3037 80.8129 17.9961 81.059 17.4424ZM84.0348 19.5V12.0215H85.6686V13.1836H85.7848C85.9899 12.4453 86.7965 11.8984 87.7604 11.8984C88.0065 11.8984 88.3073 11.9258 88.4645 11.9736V13.5459C88.3346 13.498 87.8835 13.4502 87.5964 13.4502C86.4958 13.4502 85.7301 14.1338 85.7301 15.1797V19.5H84.0348Z" fill="#226F54"/>
</svg>
